<svg xmlns="http://www.w3.org/2000/svg" viewBox="0 0 1200 675" role="img" aria-label="symbolic editorial illustration">
<defs><linearGradient id="g" x1="0" y1="0" x2="1" y2="1"><stop stop-color="#203b2b"/><stop offset="1" stop-color="#c8b66b"/></linearGradient><filter id="grain"><feTurbulence type="fractalNoise" baseFrequency="0.7" numOctaves="3" stitchTiles="stitch"/><feColorMatrix type="saturate" values="0"/><feComponentTransfer><feFuncA type="table" tableValues="0 .08"/></feComponentTransfer></filter></defs>
<rect width="1200" height="675" fill="url(#g)"/>
<circle cx="182" cy="184" r="26" fill="#86b56a" opacity="0.15"/>
<circle cx="319" cy="267" r="43" fill="#86b56a" opacity="0.18"/>
<circle cx="456" cy="350" r="60" fill="#86b56a" opacity="0.22"/>
<circle cx="593" cy="433" r="77" fill="#86b56a" opacity="0.08"/>
<circle cx="730" cy="516" r="40" fill="#86b56a" opacity="0.12"/>
<circle cx="867" cy="119" r="57" fill="#86b56a" opacity="0.15"/>
<circle cx="1004" cy="202" r="74" fill="#86b56a" opacity="0.18"/>
<circle cx="181" cy="285" r="37" fill="#86b56a" opacity="0.22"/>

<path d="M600 130 C560 250 500 320 420 390" fill="none" stroke="#f5e7c6" stroke-width="12" opacity=".5"/>
<path d="M600 130 C640 250 700 320 780 390" fill="none" stroke="#f5e7c6" stroke-width="12" opacity=".5"/>
<path d="M420 390 C330 440 260 500 190 585" fill="none" stroke="#86b56a" stroke-width="8" opacity=".55"/>
<path d="M780 390 C870 440 940 500 1010 585" fill="none" stroke="#86b56a" stroke-width="8" opacity=".55"/>
<ellipse cx="600" cy="470" rx="210" ry="74" fill="#f5e7c6" opacity=".18"/>
<rect width="1200" height="675" filter="url(#grain)" opacity=".45"/>
</svg>