<svg xmlns="http://www.w3.org/2000/svg" viewBox="0 0 1200 675" role="img" aria-label="symbolic editorial illustration">
<defs><linearGradient id="g" x1="0" y1="0" x2="1" y2="1"><stop stop-color="#203b2b"/><stop offset="1" stop-color="#c8b66b"/></linearGradient><filter id="grain"><feTurbulence type="fractalNoise" baseFrequency="0.7" numOctaves="3" stitchTiles="stitch"/><feColorMatrix type="saturate" values="0"/><feComponentTransfer><feFuncA type="table" tableValues="0 .08"/></feComponentTransfer></filter></defs>
<rect width="1200" height="675" fill="url(#g)"/>
<circle cx="275" cy="325" r="29" fill="#86b56a" opacity="0.08"/>
<circle cx="412" cy="408" r="46" fill="#86b56a" opacity="0.12"/>
<circle cx="549" cy="491" r="63" fill="#86b56a" opacity="0.15"/>
<circle cx="686" cy="94" r="26" fill="#86b56a" opacity="0.18"/>
<circle cx="823" cy="177" r="43" fill="#86b56a" opacity="0.22"/>
<circle cx="960" cy="260" r="60" fill="#86b56a" opacity="0.08"/>
<circle cx="137" cy="343" r="77" fill="#86b56a" opacity="0.12"/>
<circle cx="274" cy="426" r="40" fill="#86b56a" opacity="0.15"/>

<path d="M0 520 C180 440 340 570 520 500 C760 410 930 560 1200 480 L1200 675 L0 675Z" fill="#86b56a" opacity=".35"/>
<g opacity=".7"><ellipse cx="330" cy="420" rx="110" ry="72" fill="#f5e7c6" opacity=".28"/><ellipse cx="600" cy="385" rx="130" ry="84" fill="#f5e7c6" opacity=".32"/><ellipse cx="870" cy="430" rx="110" ry="72" fill="#f5e7c6" opacity=".28"/></g>
<path d="M600 210 C545 245 535 330 600 365 C665 330 655 245 600 210Z" fill="#86b56a" opacity=".75"/>
<rect width="1200" height="675" filter="url(#grain)" opacity=".45"/>
</svg>