<svg xmlns="http://www.w3.org/2000/svg" viewBox="0 0 1200 675" role="img" aria-label="symbolic editorial illustration">
<defs><linearGradient id="g" x1="0" y1="0" x2="1" y2="1"><stop stop-color="#203b2b"/><stop offset="1" stop-color="#c8b66b"/></linearGradient><filter id="grain"><feTurbulence type="fractalNoise" baseFrequency="0.7" numOctaves="3" stitchTiles="stitch"/><feColorMatrix type="saturate" values="0"/><feComponentTransfer><feFuncA type="table" tableValues="0 .08"/></feComponentTransfer></filter></defs>
<rect width="1200" height="675" fill="url(#g)"/>
<circle cx="151" cy="137" r="25" fill="#86b56a" opacity="0.12"/>
<circle cx="288" cy="220" r="42" fill="#86b56a" opacity="0.15"/>
<circle cx="425" cy="303" r="59" fill="#86b56a" opacity="0.18"/>
<circle cx="562" cy="386" r="76" fill="#86b56a" opacity="0.22"/>
<circle cx="699" cy="469" r="39" fill="#86b56a" opacity="0.08"/>
<circle cx="836" cy="552" r="56" fill="#86b56a" opacity="0.12"/>
<circle cx="973" cy="155" r="73" fill="#86b56a" opacity="0.15"/>
<circle cx="150" cy="238" r="36" fill="#86b56a" opacity="0.18"/>

<path d="M110 570 C300 430 460 330 600 260 C740 330 900 430 1090 570" fill="none" stroke="#f5e7c6" stroke-width="12" opacity=".55"/>
<path d="M220 590 C380 460 500 360 600 305 C700 360 820 460 980 590" fill="none" stroke="#f5e7c6" stroke-width="5" opacity=".35"/>
<path d="M600 160 C560 210 560 270 600 320 C640 270 640 210 600 160Z" fill="#86b56a" opacity=".65"/>
<circle cx="600" cy="145" r="34" fill="#f5e7c6" opacity=".75"/>
<rect width="1200" height="675" filter="url(#grain)" opacity=".45"/>
</svg>