<svg xmlns="http://www.w3.org/2000/svg" viewBox="0 0 1200 675" role="img" aria-label="symbolic editorial illustration">
<defs><linearGradient id="g" x1="0" y1="0" x2="1" y2="1"><stop stop-color="#211b2f"/><stop offset="1" stop-color="#6d596f"/></linearGradient><filter id="grain"><feTurbulence type="fractalNoise" baseFrequency="0.7" numOctaves="3" stitchTiles="stitch"/><feColorMatrix type="saturate" values="0"/><feComponentTransfer><feFuncA type="table" tableValues="0 .08"/></feComponentTransfer></filter></defs>
<rect width="1200" height="675" fill="url(#g)"/>
<circle cx="244" cy="278" r="28" fill="#f08f70" opacity="0.22"/>
<circle cx="381" cy="361" r="45" fill="#f08f70" opacity="0.08"/>
<circle cx="518" cy="444" r="62" fill="#f08f70" opacity="0.12"/>
<circle cx="655" cy="527" r="25" fill="#f08f70" opacity="0.15"/>
<circle cx="792" cy="130" r="42" fill="#f08f70" opacity="0.18"/>
<circle cx="929" cy="213" r="59" fill="#f08f70" opacity="0.22"/>
<circle cx="1066" cy="296" r="76" fill="#f08f70" opacity="0.08"/>
<circle cx="243" cy="379" r="39" fill="#f08f70" opacity="0.12"/>

<rect x="230" y="150" width="230" height="320" rx="18" fill="#f2d9bc" opacity=".18"/>
<rect x="485" y="115" width="230" height="360" rx="18" fill="#f2d9bc" opacity=".24"/>
<rect x="740" y="150" width="230" height="320" rx="18" fill="#f2d9bc" opacity=".18"/>
<path d="M320 530 C430 450 500 430 600 500 C700 430 770 450 880 530" fill="none" stroke="#f08f70" stroke-width="14" opacity=".55"/>
<rect width="1200" height="675" filter="url(#grain)" opacity=".45"/>
</svg>