<svg xmlns="http://www.w3.org/2000/svg" viewBox="0 0 1200 675" role="img" aria-label="symbolic editorial illustration">
<defs><linearGradient id="g" x1="0" y1="0" x2="1" y2="1"><stop stop-color="#211b2f"/><stop offset="1" stop-color="#6d596f"/></linearGradient><filter id="grain"><feTurbulence type="fractalNoise" baseFrequency="0.7" numOctaves="3" stitchTiles="stitch"/><feColorMatrix type="saturate" values="0"/><feComponentTransfer><feFuncA type="table" tableValues="0 .08"/></feComponentTransfer></filter></defs>
<rect width="1200" height="675" fill="url(#g)"/>
<circle cx="461" cy="127" r="35" fill="#f08f70" opacity="0.12"/>
<circle cx="598" cy="210" r="52" fill="#f08f70" opacity="0.15"/>
<circle cx="735" cy="293" r="69" fill="#f08f70" opacity="0.18"/>
<circle cx="872" cy="376" r="32" fill="#f08f70" opacity="0.22"/>
<circle cx="1009" cy="459" r="49" fill="#f08f70" opacity="0.08"/>
<circle cx="186" cy="542" r="66" fill="#f08f70" opacity="0.12"/>
<circle cx="323" cy="145" r="29" fill="#f08f70" opacity="0.15"/>
<circle cx="460" cy="228" r="46" fill="#f08f70" opacity="0.18"/>

<path d="M0 520 C180 440 340 570 520 500 C760 410 930 560 1200 480 L1200 675 L0 675Z" fill="#f08f70" opacity=".35"/>
<g opacity=".7"><ellipse cx="330" cy="420" rx="110" ry="72" fill="#f2d9bc" opacity=".28"/><ellipse cx="600" cy="385" rx="130" ry="84" fill="#f2d9bc" opacity=".32"/><ellipse cx="870" cy="430" rx="110" ry="72" fill="#f2d9bc" opacity=".28"/></g>
<path d="M600 210 C545 245 535 330 600 365 C665 330 655 245 600 210Z" fill="#f08f70" opacity=".75"/>
<rect width="1200" height="675" filter="url(#grain)" opacity=".45"/>
</svg>