<svg xmlns="http://www.w3.org/2000/svg" viewBox="0 0 1200 675" role="img" aria-label="symbolic editorial illustration">
<defs><linearGradient id="g" x1="0" y1="0" x2="1" y2="1"><stop stop-color="#211b2f"/><stop offset="1" stop-color="#6d596f"/></linearGradient><filter id="grain"><feTurbulence type="fractalNoise" baseFrequency="0.7" numOctaves="3" stitchTiles="stitch"/><feColorMatrix type="saturate" values="0"/><feComponentTransfer><feFuncA type="table" tableValues="0 .08"/></feComponentTransfer></filter></defs>
<rect width="1200" height="675" fill="url(#g)"/>
<circle cx="399" cy="513" r="33" fill="#f08f70" opacity="0.22"/>
<circle cx="536" cy="116" r="50" fill="#f08f70" opacity="0.08"/>
<circle cx="673" cy="199" r="67" fill="#f08f70" opacity="0.12"/>
<circle cx="810" cy="282" r="30" fill="#f08f70" opacity="0.15"/>
<circle cx="947" cy="365" r="47" fill="#f08f70" opacity="0.18"/>
<circle cx="124" cy="448" r="64" fill="#f08f70" opacity="0.22"/>
<circle cx="261" cy="531" r="27" fill="#f08f70" opacity="0.08"/>
<circle cx="398" cy="134" r="44" fill="#f08f70" opacity="0.12"/>

<rect x="230" y="150" width="230" height="320" rx="18" fill="#f2d9bc" opacity=".18"/>
<rect x="485" y="115" width="230" height="360" rx="18" fill="#f2d9bc" opacity=".24"/>
<rect x="740" y="150" width="230" height="320" rx="18" fill="#f2d9bc" opacity=".18"/>
<path d="M320 530 C430 450 500 430 600 500 C700 430 770 450 880 530" fill="none" stroke="#f08f70" stroke-width="14" opacity=".55"/>
<rect width="1200" height="675" filter="url(#grain)" opacity=".45"/>
</svg>