<svg xmlns="http://www.w3.org/2000/svg" viewBox="0 0 1200 675" role="img" aria-label="symbolic editorial illustration">
<defs><linearGradient id="g" x1="0" y1="0" x2="1" y2="1"><stop stop-color="#211b2f"/><stop offset="1" stop-color="#6d596f"/></linearGradient><filter id="grain"><feTurbulence type="fractalNoise" baseFrequency="0.7" numOctaves="3" stitchTiles="stitch"/><feColorMatrix type="saturate" values="0"/><feComponentTransfer><feFuncA type="table" tableValues="0 .08"/></feComponentTransfer></filter></defs>
<rect width="1200" height="675" fill="url(#g)"/>
<circle cx="554" cy="268" r="38" fill="#f08f70" opacity="0.22"/>
<circle cx="691" cy="351" r="55" fill="#f08f70" opacity="0.08"/>
<circle cx="828" cy="434" r="72" fill="#f08f70" opacity="0.12"/>
<circle cx="965" cy="517" r="35" fill="#f08f70" opacity="0.15"/>
<circle cx="142" cy="120" r="52" fill="#f08f70" opacity="0.18"/>
<circle cx="279" cy="203" r="69" fill="#f08f70" opacity="0.22"/>
<circle cx="416" cy="286" r="32" fill="#f08f70" opacity="0.08"/>
<circle cx="553" cy="369" r="49" fill="#f08f70" opacity="0.12"/>

<path d="M600 130 C560 250 500 320 420 390" fill="none" stroke="#f2d9bc" stroke-width="12" opacity=".5"/>
<path d="M600 130 C640 250 700 320 780 390" fill="none" stroke="#f2d9bc" stroke-width="12" opacity=".5"/>
<path d="M420 390 C330 440 260 500 190 585" fill="none" stroke="#f08f70" stroke-width="8" opacity=".55"/>
<path d="M780 390 C870 440 940 500 1010 585" fill="none" stroke="#f08f70" stroke-width="8" opacity=".55"/>
<ellipse cx="600" cy="470" rx="210" ry="74" fill="#f2d9bc" opacity=".18"/>
<rect width="1200" height="675" filter="url(#grain)" opacity=".45"/>
</svg>